# xmcd
#
# Track frame offsets: 
#        150
#        11071
#        22451
#        32522
#        43504
#        52647
#        62279
#        73977
#        83823
#        96788
#        107923
#        118006
#        129641
#        140031
#        150024
#        160478
#        174116
#        183371
#        194609
#        208104
#        220489
#        229943
#        239975
#        253797
#        265473
#        276325
#        306856
#        324908
#
# Disc length: 4460 seconds
#
# Revision: 0
# Processed by: cddbd v1.5.2PL0 Copyright (c) Steve Scherf et al.
# Submitted via: ExactAudioCopyFreeDBPlugin 1.0
#
DISCID=a0116a1c
DTITLE=Sugar Chile Robinson - Go Boy Go!
DYEAR=2007
DGENRE=Blues
TTITLE0=Numbers Boogie
TTITLE1=After School Blues
TTITLE2=Vooey Vooey Voy
TTITLE3=Caldonia (What Makes Your Big Head So Hard)
TTITLE4=Say, Little Girl
TTITLE5=Bouncing Ball Boogie
TTITLE6=Sticks And Stories
TTITLE7=The Bases Were Loaded
TTITLE8=Broken Down Piano
TTITLE9=I'll Eat My Spinach
TTITLE10=Christmas Boogie
TTITLE11=Rudolph The Red Nosed Reindeer
TTITLE12=Baby Blues
TTITLE13=The Donkey Song
TTITLE14=The Hunkie Man (Ice Cream Man)
TTITLE15=The Green Grass Grows All Around
TTITLE16=Whop! Whop!
TTITLE17=Hum-Drum Boogie
TTITLE18=Lazy Boy's Boogie
TTITLE19=Detroit Rag
TTITLE20=Frustration Boogie
TTITLE21=Go Boy Go
TTITLE22=St Louis Blues
TTITLE23=Yancey Special
TTITLE24=Caldonia
TTITLE25=Medley (from a 1947 short film)
TTITLE26=After School Blues (from 1951 soundtrack)
TTITLE27=Numbers Boogie (from 1951 soundtrack)
EXTD=
EXTT0=
EXTT1=
EXTT2=
EXTT3=
EXTT4=
EXTT5=
EXTT6=
EXTT7=
EXTT8=
EXTT9=
EXTT10=
EXTT11=
EXTT12=
EXTT13=
EXTT14=
EXTT15=
EXTT16=
EXTT17=
EXTT18=
EXTT19=
EXTT20=
EXTT21=
EXTT22=
EXTT23=
EXTT24=
EXTT25=
EXTT26=
EXTT27=
PLAYORDER=
